<svg xmlns="http://www.w3.org/2000/svg" viewBox="0 0 170.55 161.38"><g id="Layer_2" data-name="Layer 2"><g id="Layer_1-2" data-name="Layer 1"><path d="M128.81,4.39A74.8,74.8,0,0,0,50.12,22.62C45,28.09,40.48,35,40.72,42.75c.2,6.63,3.73,12.61,8.56,17A38.92,38.92,0,0,0,67.73,69c8.92,1.75,18.09,1,27.08.46,8.66-.52,17.32-.75,25.84,1.15a67.25,67.25,0,0,1,21.49,8.92c12.41,7.91,22.52,20.14,24.93,35,1.08,6.66.24,13.71-3.29,19.55-3.65,6-9.7,10.05-16.15,12.59-6.95,2.74-14.33,4.11-21.64,5.49-9.29,1.75-18.6,3.47-28,4.66-17.3,2.2-35.17,2.69-52.12-2-14-3.82-27.34-10.95-37-21.95a56.2,56.2,0,0,1-6.12-8.5,1.5,1.5,0,0,0-2.59,1.51C7.67,138.52,19.64,147.77,33,153.49c15.14,6.48,31.58,8.43,47.93,7.76a236,236,0,0,0,28.18-3.09c8.72-1.41,17.46-2.94,26.09-4.82,13.69-3,28.48-8.61,33.58-22.94,4.8-13.53-.82-29-9.41-39.66-9.62-12-24.14-20.25-39.12-23.31-8.65-1.76-17.41-1.49-26.17-1s-18.18,1.39-26.94-.7c-12.35-2.94-26.71-14-22.8-28.31,2-7.33,7.88-13.3,13.56-18.06A69.09,69.09,0,0,1,76.15,8.48a72.74,72.74,0,0,1,41.77-4.11A69.61,69.61,0,0,1,128,7.28c1.81.68,2.59-2.22.8-2.89Z"/></g></g></svg>