<svg xmlns="http://www.w3.org/2000/svg" viewBox="0 0 998.01 258.32"><defs><style>.cls-1{fill:#71c15e;}</style></defs><g id="Layer_2" data-name="Layer 2"><g id="Layer_1-2" data-name="Layer 1"><path class="cls-1" d="M126.75,125.66a225.53,225.53,0,0,0-27.87-7.29,309.27,309.27,0,0,1-30.07-7.56A97.44,97.44,0,0,1,44.12,99.68q-10.33-6.74-12-18.29A33.13,33.13,0,0,1,35.43,62,65.92,65.92,0,0,1,49,43.59,109.08,109.08,0,0,1,69.5,27.92,125.35,125.35,0,0,1,93.92,16.64a100.29,100.29,0,0,1,25.38-5.08,61.24,61.24,0,0,1,23.45,2.75,36.27,36.27,0,0,1,15.59,9.62q6.19,6.6,7.31,14.16t-3.73,15q-4.83,7.43-17.24,12.38-4.14.27-3.45-1.51a10.6,10.6,0,0,1,3.45-4q2.76-2.21,5.79-4.26a14.49,14.49,0,0,0,3.31-2.62q9.66-12.63,5.66-21T142.2,19.26A55.22,55.22,0,0,0,121,17.19a98.1,98.1,0,0,0-23.32,4.95A131.24,131.24,0,0,0,75,32.32,109.61,109.61,0,0,0,55.71,46.06,76.86,76.86,0,0,0,42.19,61.6q-5.1,8-5.1,15.12a17.84,17.84,0,0,0,4.55,12.92,41.75,41.75,0,0,0,12.69,9.49,107.51,107.51,0,0,0,18.07,7q10.2,3,21,5.63t21.1,5.09a135.08,135.08,0,0,1,18.62,5.78q10.22,3.84,14.62,8.79,2.49-.54,8.83-1.51T169.92,128q7-1,13.11-1.38a49.65,49.65,0,0,1,8-.14c2,.37,2.89,1.2,2.62,2.48a3.77,3.77,0,0,1-2.62,2.75,43.76,43.76,0,0,1-9.11,1.92q-5,.56-10.34.83L161,135a73.07,73.07,0,0,0-9.66,1.1,25.77,25.77,0,0,1,3.31,20.62q-2.76,10.72-11.45,21.17a126.17,126.17,0,0,1-21.79,20.21,211.55,211.55,0,0,1-28,17.59,250.71,250.71,0,0,1-30.21,13.48,172.07,172.07,0,0,1-28.14,8q-12.83,2.32-21.93.82T1.5,230.14a19.24,19.24,0,0,1-1.38-9.35,23.51,23.51,0,0,1,2.62-8.25,36.5,36.5,0,0,1,5.38-7.42q3.32-3.57,6.62-6.6,7.17-6.6,14.9-12.79t15.73-11.68a264.37,264.37,0,0,1,45.79-25.3,267.11,267.11,0,0,1,50.21-15.94Q136.12,128.69,126.75,125.66Zm19,11.55a252.58,252.58,0,0,0-60,20.07,289.09,289.09,0,0,0-53.66,33.54l-6.89,5.5q-4.14,3.3-8,7a89.31,89.31,0,0,0-7,7.56,19,19,0,0,0-4,7.15q-2.76,9.61,3.45,13.2t17.66,2.33q11.44-1.23,26.76-6.46a237.65,237.65,0,0,0,30.76-13.06,259.59,259.59,0,0,0,29.65-17.59,131,131,0,0,0,23.45-20.07q9.24-10.32,12.14-20.49T145.78,137.21Z"/><path class="cls-1" d="M220,104.76a22.74,22.74,0,0,1,6.21,13.06,56.74,56.74,0,0,1-.14,17.19,78.43,78.43,0,0,1-5,17.87,62.39,62.39,0,0,1-8.41,15,29.75,29.75,0,0,1-10.21,8.8,9.78,9.78,0,0,1-10.34-.69q-2.76-1.92-4-6.87a51.42,51.42,0,0,1-1.38-11.41,89.76,89.76,0,0,1,.83-13.75,110.3,110.3,0,0,1,2.62-13.61,72.46,72.46,0,0,1,3.72-11q2.07-4.68,4.55-6.33,5.52-3.57,4.69,2.75a40.83,40.83,0,0,1-1.65,4.26q-1.66,4-3.73,9.9t-4,12.65A91.44,91.44,0,0,0,191,155.49a29.38,29.38,0,0,0,.28,10.72q1.09,4.54,5,5.64,5.23,1.65,9.79-3.57a49.76,49.76,0,0,0,7.86-12.79,96.3,96.3,0,0,0,5.24-15.26q1.93-7.69,2.49-11.55a23.45,23.45,0,0,0-1.38-11,46.11,46.11,0,0,0-4.14-8c-1.48-2.2-2.67-4-3.59-5.5s-.83-2.65.28-3.57c.92-.73,3.21-1.33,6.89-1.79s8-.87,13-1.24c1.66-.17,3.95-.41,6.9-.68s6.07-.5,9.38-.69q9.38-.27,13.93,1.24t5.93,4.81a13,13,0,0,1,.41,7.84q-1,4.53-2.06,10-1.67,7.16-2.9,12.37t-2.48,10q-1.25,4.81-2.49,10t-2.89,12.65q2.47-3.3,7.31-11t11-17.18Q281,127.59,288,117.55a205.32,205.32,0,0,1,13.94-17.87,85.82,85.82,0,0,1,12.82-12.24Q320.69,83,325.1,85q5,2.2,6.48,8.38a45.91,45.91,0,0,1,.83,14.58,149.19,149.19,0,0,1-2.62,17.73q-1.94,9.34-3.59,17.46a111,111,0,0,0-2.07,14.16c-.27,4,.32,6.6,1.8,7.7q3.3,2.47,8.69-1.1a80.42,80.42,0,0,0,11.31-9.35,147.16,147.16,0,0,0,11.31-12.37q5.38-6.6,8.41-10.45,1.94-2.47,3.59-2.34c1.1.1,1.56,1.15,1.38,3.16q0,1.11-3.31,5.5t-8.28,9.9a149.05,149.05,0,0,1-10.9,10.86,64,64,0,0,1-11.58,8.52q-5.66,3.16-10.35,2.89t-6.62-6.32q-1.11-3-.27-9.63t2.2-14.71q1.38-8.1,3.18-16.77A127.86,127.86,0,0,0,327,107a47.79,47.79,0,0,0-.28-11.82q-.83-4.67-4.41-5.22a6.27,6.27,0,0,0-5,2.06,49.55,49.55,0,0,0-3.86,4,279.23,279.23,0,0,0-24,29q-10.75,15-21,31.48-.27.56-3.31,5.5a94.87,94.87,0,0,1-6.75,9.62,27,27,0,0,1-6.76,6.47q-3,1.78-3-4a54.67,54.67,0,0,1,1.24-7.29q1.25-5.91,3.31-13.88t4.28-17q2.21-9.08,4.41-16.77,2.49-8.25.83-12.23A8.68,8.68,0,0,0,257,101.6a26.11,26.11,0,0,0-10.21-.55q-6.08.69-13,1.51l-7,1.1Z"/><path class="cls-1" d="M565.94,176.25q6.88-11.55,16.27-26.26t20.69-31.75q11.31-17.05,23.59-33.82t24.83-32.17A355.28,355.28,0,0,1,675.6,25.17,147.73,147.73,0,0,1,697.67,6.61Q708-.26,716,0a10.05,10.05,0,0,1,5.93,1.65,11.09,11.09,0,0,1,3.59,4.12,17.15,17.15,0,0,1,1.65,5.37,39,39,0,0,1,.42,5.63,103.26,103.26,0,0,1-2.35,19.66q-2.34,11.69-5.93,25t-8,27.77q-4.41,14.43-8.83,28.18t-8.13,26.26q-3.74,12.51-5.94,21.86-3.3,13.18-5.79,26.53a132.07,132.07,0,0,0-2.21,26.81q.27,3.84.83,8.11a62.06,62.06,0,0,0,1.79,8.66,46.74,46.74,0,0,0,3.18,8.25,17.57,17.57,0,0,0,5.24,6.32,13.32,13.32,0,0,0,3.45,1.65,7.51,7.51,0,0,1,3.17,1.92,4,4,0,0,1,1.1,3.3c-.18,1.1-1.2,1.47-3,1.1a11.44,11.44,0,0,1-4.83-2.47,23.92,23.92,0,0,1-4-3.58q-8.55-7.69-9.93-24.33t1.79-37.8a423.83,423.83,0,0,1,9.52-45.23q6.34-24.06,13-47t12.41-42.89Q719.87,34.92,721.8,22c.19-1.28.37-2.8.56-4.54a25.3,25.3,0,0,0,0-5.22A14.23,14.23,0,0,0,721,7.43a6,6,0,0,0-3.86-3q-6.07-1.65-15,3.85a109.9,109.9,0,0,0-19.45,16q-10.49,10.44-22.21,24.6T637.25,78.37q-11.44,15.41-22.35,31.07T595,138.72q-9,13.6-15.45,23.92t-9.24,15q-5,8.25-10.76,17.19a92.68,92.68,0,0,0-9.1,17.73,35.47,35.47,0,0,0-1.52,5.91c-.46,2.48-1,5-1.52,7.56q-1.94,7.69-4.41,9.76t-4.14.55c-1.1-1-1.75-2.84-1.93-5.49a15.1,15.1,0,0,1,2.48-8.67c1.1-2,2.35-4.07,3.73-6.18a55.78,55.78,0,0,0,2.89-4.81,99.49,99.49,0,0,0,5.52-19A182.58,182.58,0,0,1,556.28,173q1.65-6,5.66-19.11t8.41-29.42q4.41-16.35,8.55-33.82A317.2,317.2,0,0,0,585,58.16a120.16,120.16,0,0,0,1-25.57Q585,22,579.45,19.53q-5.52-2.19-16.14,3.3a170.24,170.24,0,0,0-23.72,15.4,350.73,350.73,0,0,0-27,22.82Q498.62,74,486.62,86.34t-20.69,22.82q-8.69,10.45-11.17,15.67-4.69,9.36-3,16.09a24,24,0,0,0,6.76,11.68A43.7,43.7,0,0,0,471.31,161q7.72,3.44,15.17,6.46l4.56,1.79c2.11.82,4.31,1.74,6.62,2.75s4.36,2,6.2,3a10.83,10.83,0,0,1,3.31,2.34c.92,1.47,1.11,2.57.56,3.3s-1.75.92-3.59.55a13.87,13.87,0,0,1-4.69-2.34,35.64,35.64,0,0,0-4.69-2.89,137.74,137.74,0,0,0-15.45-6.73,99.29,99.29,0,0,1-16-7.56A43.08,43.08,0,0,1,451,151.09q-4.81-6.18-4.55-15.81c.19-3.11,1.79-7.33,4.83-12.64a143.84,143.84,0,0,1,12.28-17.74q7.71-9.75,17.65-20.48t21-21q11-10.32,22.34-19.66a240.71,240.71,0,0,1,21.66-16.09,117.83,117.83,0,0,1,19-10.31q8.68-3.57,14.2-2.47a11.5,11.5,0,0,1,7.87,5.5,29.5,29.5,0,0,1,3.58,10.72,73.9,73.9,0,0,1,.69,13.75,124.59,124.59,0,0,1-1.38,14.57q-1.1,7.16-2.48,13.06t-2.21,9.21q-3.3,12.93-6.62,25.57T572,132.81l-16.27,60.76Q559,187.8,565.94,176.25Z"/><path class="cls-1" d="M768.43,102.56c.18-.36.78-1.65,1.79-3.84a38,38,0,0,1,3.45-6q1.92-2.74,3.45-3t1.51,5A43.36,43.36,0,0,1,777,102q-1.65,6.06-3.86,14.3T769,133.91a103.44,103.44,0,0,0-2.21,17.46A43,43,0,0,0,768.15,165q1.65,5.51,6.9,6,6.06.82,12.69-4.12a80.06,80.06,0,0,0,12.55-11.82,122.72,122.72,0,0,0,10.35-13.75q4.41-6.87,6.34-10.17c1.11-2,2.07-2.7,2.9-2.06s1,1.78.41,3.43a51.75,51.75,0,0,1-5.24,10.31,115.65,115.65,0,0,1-9.24,12.65,118.12,118.12,0,0,1-11.45,12,46.39,46.39,0,0,1-11.86,8.11c-3.87,1.75-7.41,2.2-10.62,1.38s-5.66-3.62-7.32-8.39a37.3,37.3,0,0,1-2.48-10.86,89.51,89.51,0,0,1-.27-12.23q.27-6,1-11.41c.46-3.58.87-6.37,1.24-8.39l-10.2,19.8q-2.77,5.22-5.52,10.17a78.67,78.67,0,0,1-6.35,9.62q-8.84,11.55-14.34,12.24t-8.14-5.23q-2.62-5.91-2.21-16.49a104.51,104.51,0,0,1,3.31-21.86,99.25,99.25,0,0,1,8.14-21.31q5.24-10,12.42-15a23.32,23.32,0,0,1,7-2.88,21.38,21.38,0,0,1,8-.41,18.42,18.42,0,0,1,7.31,2.61A12.87,12.87,0,0,1,768.43,102.56Zm-2.49,5.78a7.49,7.49,0,0,1-2.34-2.89,11.9,11.9,0,0,0-1.1-2.34,6.61,6.61,0,0,0-2.49-2.06,19.54,19.54,0,0,0-6.2-1.51q-6.36-.83-12,5.09a59.23,59.23,0,0,0-10.06,14.84,98.33,98.33,0,0,0-7,19.11,85.89,85.89,0,0,0-2.9,18.15q-.27,8,1.94,11.68t8-.13q3.57-2.47,8.69-10.45t10.07-17.46q5-9.48,9.1-18.42T765.94,108.34Z"/><path class="cls-1" d="M817,163.88c.74-1.83,1.79-4.77,3.17-8.8s3-8.43,5-13.2,4.13-9.62,6.62-14.57a88.77,88.77,0,0,1,8-13.2,34.14,34.14,0,0,1,9.1-8.8,11.62,11.62,0,0,1,10.07-1.37q3.58,1.09,6.48,6a107.86,107.86,0,0,1,5.38,10.45q2.49,5.49,4.69,10.31c1.47,3.21,3,5.18,4.69,5.91a7.21,7.21,0,0,0,5,.41A20.13,20.13,0,0,0,890,135a30.31,30.31,0,0,0,4.41-3.16,15.7,15.7,0,0,1,4-2.62,2.36,2.36,0,0,1,3.45,1c.83,1.37.41,2.52-1.24,3.43q-2.76,1.38-6.21,3.3a35.88,35.88,0,0,1-7,3,16,16,0,0,1-7.18.55,10.93,10.93,0,0,1-6.62-4.13,30,30,0,0,1-4.27-7.15q-1.8-4.12-3.45-8.24a52.8,52.8,0,0,0-3.73-7.57,11.6,11.6,0,0,0-5.1-4.81q-4.14-1.65-8.28,1.65a37.38,37.38,0,0,0-8,9.49,110.69,110.69,0,0,0-7.45,14.43q-3.59,8.25-6.48,16.36t-5.24,15.12c-1.56,4.68-2.81,8.21-3.72,10.59-.18.55-.46,1.28-.83,2.2a2,2,0,0,1-1.93,1.37c-2.94.74-4.42-.73-4.42-4.4a92.37,92.37,0,0,1,1-10.31q1-7.28,2.34-16.49t3.18-19.25q1.78-10,3.44-18.56t3-14.29c.92-3.85,1.65-6,2.21-6.6q4.14-3.3,5.51,2.75a29,29,0,0,1-.69,2.88c-.46,1.75-1,3.67-1.51,5.78s-1.11,4.12-1.66,6-.92,3.16-1.1,3.71q-1.38,5.5-2.62,12.23c-.83,4.5-1.66,9.12-2.49,13.89s-1.61,9.44-2.34,14S817.53,160,817,163.88Z"/><path class="cls-1" d="M945.81,102.56c.18-.36.78-1.65,1.8-3.84a37.19,37.19,0,0,1,3.44-6q1.94-2.74,3.45-3t1.52,5a42.78,42.78,0,0,1-1.66,7.42q-1.65,6.06-3.86,14.3t-4.14,17.6a104.41,104.41,0,0,0-2.2,17.46A42.42,42.42,0,0,0,945.54,165q1.65,5.51,6.89,6,6.08.82,12.69-4.12a79.68,79.68,0,0,0,12.56-11.82A121.39,121.39,0,0,0,988,141.33q4.41-6.87,6.35-10.17c1.1-2,2.06-2.7,2.89-2.06s1,1.78.42,3.43a51.88,51.88,0,0,1-5.25,10.31,113.07,113.07,0,0,1-9.24,12.65,116,116,0,0,1-11.45,12,46.22,46.22,0,0,1-11.86,8.11c-3.86,1.75-7.4,2.2-10.62,1.38s-5.66-3.62-7.31-8.39a36.67,36.67,0,0,1-2.48-10.86,91.16,91.16,0,0,1-.28-12.23q.27-6,1-11.41c.45-3.58.87-6.37,1.24-8.39l-10.21,19.8q-2.76,5.22-5.52,10.17a78.58,78.58,0,0,1-6.34,9.62Q910.5,176.8,905,177.49t-8.14-5.23q-2.61-5.91-2.2-16.49A103.86,103.86,0,0,1,898,133.91a98.72,98.72,0,0,1,8.14-21.31q5.24-10,12.41-15a23.38,23.38,0,0,1,7-2.88,21.38,21.38,0,0,1,8-.41,18.42,18.42,0,0,1,7.31,2.61A12.85,12.85,0,0,1,945.81,102.56Zm-2.48,5.78a7.44,7.44,0,0,1-2.35-2.89,10.86,10.86,0,0,0-1.1-2.34,6.57,6.57,0,0,0-2.48-2.06,19.61,19.61,0,0,0-6.21-1.51q-6.35-.83-12,5.09a59.25,59.25,0,0,0-10.07,14.84,98.31,98.31,0,0,0-7,19.11,85.25,85.25,0,0,0-2.9,18.15q-.27,8,1.93,11.68t8-.13q3.58-2.47,8.69-10.45t10.07-17.46q5-9.48,9.1-18.42T943.33,108.34Z"/></g></g></svg>